<?xml version="1.0" encoding="utf-8"?>
<!-- Generator: Adobe Illustrator 27.5.0, SVG Export Plug-In . SVG Version: 6.00 Build 0)  -->
<svg version="1.1" xmlns="http://www.w3.org/2000/svg" xmlns:xlink="http://www.w3.org/1999/xlink" x="0px" y="0px"
	 viewBox="0 0 750 500" style="enable-background:new 0 0 750 500;" xml:space="preserve">
<g id="BACKGROUND">
	<rect style="fill:#F0F2F2;" width="750" height="500"/>
</g>
<g id="OBJECTS">
	<g>
		<defs>
			<rect id="SVGID_1_" width="750" height="500"/>
		</defs>
		<clipPath id="SVGID_00000005248711146811728410000016307426665535506080_">
			<use xlink:href="#SVGID_1_"  style="overflow:visible;"/>
		</clipPath>
		<g style="clip-path:url(#SVGID_00000005248711146811728410000016307426665535506080_);">
			<path style="fill:none;stroke:#D2D6D6;stroke-width:0.75;stroke-miterlimit:10;" d="M-43.678,202.439
				c53.811-21.507,103.735-33.059,127.546-30.103c66.021,8.195,103.112,113.645,125.361,117.894
				c27.046,5.166,39.052-107.92,70.011-125.049c30.055-16.629,85.966,33.895,128.328,12.389
				c49.35-25.055,130.566-100.7,171.214-119.176c49.9-22.682,75.482,220.68,110.16,220.866
				c40.355,0.217,90.544-267.779,104.366-320.104"/>
			<path style="opacity:0.9767;fill:none;stroke:#D2D6D6;stroke-width:0.7558;stroke-miterlimit:10;" d="M-42.672,206.363
				c53.473-21.532,102.991-33.15,126.875-30.453c66.233,7.477,103.216,111.084,125.388,116.042
				c26.988,6.089,38.76-102.994,69.992-120.054c30.137-16.501,85.376,32.308,127.031,10.308
				c32.148-16.979,77.16-55.513,115.812-84.489C542.97,82.341,561.9,69.5,576.139,63.4c25.161-10.787,44.587,43.111,61.55,99.355
				c17.046,56.653,31.949,115.349,49.113,114.46c14.004-0.725,29.215-33.813,43.764-78.304
				C757.608,116.846,784.501-2.78,793.81-36.774"/>
			<path style="opacity:0.9535;fill:none;stroke:#D2D6D6;stroke-width:0.7616;stroke-miterlimit:10;" d="M-41.666,210.286
				C11.47,188.73,60.581,177.044,84.538,179.484c66.446,6.759,103.32,108.524,125.416,114.189
				c26.928,7.012,38.468-98.068,69.973-115.059c30.218-16.373,84.785,30.707,125.734,8.228
				c32.025-17.58,76.14-56.616,114.172-85.048c20.312-15.135,39.25-27.58,53.665-33.387c25.458-10.273,45.485,42.774,62.488,97.456
				c17.053,55.097,31.744,111.18,48.677,109.307c13.79-1.525,28.681-34.535,43.244-78.155
				C754.89,116.189,784.648,1.39,794.313-32.702"/>
			<path style="opacity:0.9302;fill:none;stroke:#D3D7D7;stroke-width:0.7674;stroke-miterlimit:10;" d="M-40.66,214.21
				c52.798-21.581,101.503-33.334,125.533-31.152c66.658,6.041,103.441,105.904,125.443,112.337
				c26.891,7.863,38.176-93.142,69.953-110.064c30.3-16.245,84.194,29.092,124.436,6.148c31.903-18.189,75.12-57.718,112.532-85.606
				c20.079-14.893,39.026-26.943,53.617-32.457c25.756-9.759,46.383,42.438,63.426,95.557
				c17.06,53.54,31.533,107.015,48.241,104.155c13.572-2.323,28.2-35.242,42.724-78.006c27.022-79.56,59.549-189.561,69.569-223.752
				"/>
			<path style="opacity:0.907;fill:none;stroke:#D3D7D7;stroke-width:0.7733;stroke-miterlimit:10;" d="M-39.653,218.133
				c52.46-21.606,100.758-33.425,124.861-31.501c66.87,5.323,103.552,103.327,125.47,110.485
				c26.841,8.766,37.884-88.216,69.934-105.069c30.381-16.118,83.601,27.463,123.139,4.068
				c31.784-18.807,74.1-58.821,110.892-86.165c19.846-14.652,38.803-26.306,53.568-31.527c26.053-9.245,47.281,42.102,64.365,93.658
				c17.066,51.984,31.317,102.853,47.805,99.002c13.35-3.118,27.719-35.949,42.204-77.858
				c27.06-78.293,62.356-183.495,72.731-217.786"/>
			<path style="opacity:0.8837;fill:none;stroke:#D3D7D7;stroke-width:0.7791;stroke-miterlimit:10;" d="M-38.647,222.057
				c52.122-21.631,100.014-33.517,124.19-31.851c67.083,4.605,103.664,100.751,125.497,108.632
				c26.792,9.671,37.629-83.218,69.915-100.074c30.498-15.922,83.005,25.82,121.842,1.987
				c31.666-19.432,73.027-59.996,109.252-86.724c19.585-14.45,38.579-25.669,53.52-30.597c26.351-8.73,48.179,41.765,65.303,91.759
				c17.073,50.428,31.097,98.696,47.369,93.85c13.125-3.908,27.24-36.655,41.684-77.709c27.101-77.026,65.163-177.43,75.893-211.819
				"/>
			<path style="opacity:0.8605;fill:none;stroke:#D3D7D7;stroke-width:0.7849;stroke-miterlimit:10;" d="M-37.641,225.981
				c51.785-21.656,99.27-33.609,123.519-32.2c67.295,3.887,103.776,98.178,125.525,106.78c26.743,10.578,37.343-78.28,69.895-95.078
				c30.585-15.783,82.408,24.163,120.545-0.093c31.549-20.066,71.997-61.112,107.612-87.283
				c19.347-14.216,38.355-25.032,53.472-29.667c26.648-8.216,49.183,41.391,66.241,89.86c17.186,48.834,30.873,94.543,46.933,88.698
				c12.897-4.695,26.763-37.362,41.165-77.56c27.143-75.76,67.969-171.365,79.055-205.852"/>
			<path style="opacity:0.8372;fill:none;stroke:#D3D7D7;stroke-width:0.7907;stroke-miterlimit:10;" d="M-36.635,229.904
				c51.447-21.681,98.526-33.7,122.848-32.55c67.507,3.169,103.888,95.606,125.552,104.928
				c26.695,11.487,37.056-73.342,69.876-90.083c30.671-15.645,81.807,22.493,119.248-2.173
				c31.432-20.707,70.967-62.228,105.971-87.842c19.109-13.983,38.132-24.395,53.424-28.738
				c26.946-7.702,50.098,41.047,67.179,87.962c17.21,47.27,30.648,90.397,46.497,83.545c12.668-5.476,26.286-38.069,40.645-77.411
				c27.188-74.495,70.776-165.299,82.218-199.886"/>
			<path style="opacity:0.814;fill:none;stroke:#D4D7D7;stroke-width:0.7965;stroke-miterlimit:10;" d="M-35.629,233.828
				c51.109-21.706,97.782-33.792,122.177-32.899c67.72,2.451,104.001,93.035,125.579,103.075
				c26.646,12.397,36.769-68.405,69.857-85.088c30.757-15.508,81.203,20.809,117.951-4.253
				c31.316-21.358,69.938-63.344,104.331-88.401c18.871-13.749,37.908-23.758,53.375-27.808
				c27.243-7.188,51.013,40.703,68.117,86.063c17.234,45.706,30.421,86.256,46.061,78.393c12.438-6.253,25.812-38.776,40.125-77.263
				c27.234-73.231,73.583-159.234,85.38-193.919"/>
			<path style="opacity:0.7907;fill:none;stroke:#D4D8D8;stroke-width:0.8023;stroke-miterlimit:10;" d="M-34.622,237.751
				c50.771-21.731,97.037-33.884,121.505-33.249c67.932,1.733,104.113,90.467,125.607,101.223
				c26.598,13.31,36.481-63.469,69.838-80.093c30.842-15.371,80.594,19.113,116.654-6.334
				c31.199-22.016,68.91-64.458,102.691-88.959c18.634-13.515,37.685-23.121,53.327-26.878
				c27.541-6.674,51.928,40.357,69.056,84.164c17.258,44.141,30.194,82.121,45.626,73.24c12.208-7.025,25.339-39.483,39.605-77.114
				c27.283-71.967,76.39-153.168,88.542-187.953"/>
			<path style="opacity:0.7674;fill:none;stroke:#D4D8D8;stroke-width:0.8081;stroke-miterlimit:10;" d="M-33.616,241.675
				c50.434-21.755,96.293-33.975,120.834-33.598c68.144,1.015,104.225,87.9,125.634,99.37
				c26.549,14.225,36.193-58.534,69.818-75.098c30.927-15.235,79.982,17.404,115.357-8.414
				c31.08-22.683,67.881-65.573,101.051-89.518c18.396-13.28,37.461-22.485,53.279-25.948c27.838-6.16,52.843,40.012,69.994,82.265
				c17.282,42.576,29.968,77.991,45.19,68.088c11.979-7.793,24.868-40.189,39.085-76.965C733.96,111.153,785.822,34.753,798.33-0.13
				"/>
			<path style="opacity:0.7442;fill:none;stroke:#D4D8D8;stroke-width:0.814;stroke-miterlimit:10;" d="M-32.61,245.598
				c50.096-21.781,95.549-34.067,120.163-33.948c68.357,0.297,104.337,85.334,125.661,97.518
				c26.5,15.142,35.904-53.599,69.799-70.103c31.011-15.1,79.364,15.683,114.06-10.494c30.96-23.359,66.854-66.687,99.411-90.077
				c18.159-13.046,37.237-21.848,53.231-25.018c28.136-5.645,53.758,39.665,70.932,80.366c17.305,41.01,29.743,73.866,44.754,62.935
				c11.751-8.557,24.398-40.896,38.565-76.816c27.388-69.441,82.003-141.038,94.866-176.02"/>
			<path style="opacity:0.7209;fill:none;stroke:#D5D8D8;stroke-width:0.8198;stroke-miterlimit:10;" d="M-31.604,249.522
				c49.758-21.805,94.805-34.159,119.492-34.298c68.569-0.421,104.448,82.77,125.688,95.666
				c26.451,16.06,35.615-48.665,69.78-65.107c31.095-14.965,78.742,13.951,112.763-12.574
				c30.837-24.043,65.826-67.801,97.771-90.636c17.922-12.811,37.013-21.21,53.182-24.088c28.433-5.131,54.672,39.318,71.87,78.467
				c17.328,39.443,29.521,69.745,44.318,57.783c11.525-9.318,23.931-41.603,38.046-76.668
				c27.444-68.178,84.81-134.972,98.028-170.053"/>
			<path style="opacity:0.6977;fill:none;stroke:#D5D8D8;stroke-width:0.8256;stroke-miterlimit:10;" d="M-30.597,253.445
				c49.421-21.83,94.061-34.25,118.821-34.647c68.781-1.139,104.559,80.206,125.715,93.813c26.401,16.98,35.326-43.732,69.76-60.112
				c31.179-14.832,78.115,12.207,111.466-14.655c30.712-24.736,64.799-68.914,96.13-91.195
				c17.685-12.577,36.79-20.574,53.134-23.159c28.731-4.617,55.585,38.971,72.809,76.568c17.351,37.876,29.302,65.629,43.882,52.63
				c11.301-10.075,23.465-42.309,37.526-76.519c27.504-66.916,87.617-128.907,101.19-164.087"/>
			<path style="opacity:0.6744;fill:none;stroke:#D5D9D9;stroke-width:0.8314;stroke-miterlimit:10;" d="M-29.591,257.369
				c49.083-21.855,93.316-34.342,118.15-34.997c68.994-1.857,104.669,77.645,125.743,91.961
				c26.35,17.901,35.036-38.799,69.741-55.117c31.262-14.699,77.482,10.452,110.168-16.735
				c30.582-25.436,63.773-70.027,94.49-91.753c17.449-12.342,36.566-19.937,53.086-22.229c29.028-4.103,56.499,38.622,73.747,74.669
				c17.373,36.307,29.085,61.515,43.446,47.478c11.08-10.83,23.001-43.016,37.006-76.37
				c27.566-65.655,90.423-122.841,104.353-158.12"/>
			<path style="opacity:0.6512;fill:none;stroke:#D5D9D9;stroke-width:0.8372;stroke-miterlimit:10;" d="M-28.585,261.292
				c48.745-21.88,92.572-34.433,117.478-35.346c69.206-2.576,104.779,75.084,125.77,90.108
				c26.298,18.823,34.746-33.868,69.722-50.122c31.344-14.567,76.842,8.686,108.871-18.815
				c30.449-26.145,62.747-71.138,92.85-92.312c17.212-12.106,36.343-19.3,53.038-21.299c29.326-3.589,57.411,38.273,74.685,72.77
				c17.394,34.738,28.872,57.404,43.01,42.325c10.861-11.583,22.54-43.722,36.486-76.221
				c27.632-64.393,93.23-116.776,107.515-152.154"/>
			<path style="opacity:0.6279;fill:none;stroke:#D5D9D9;stroke-width:0.843;stroke-miterlimit:10;" d="M-27.579,265.216
				c48.407-21.905,91.828-34.525,116.807-35.696c69.418-3.294,104.888,72.524,125.797,88.256
				c26.246,19.747,34.455-28.937,69.703-45.127c31.427-14.435,76.197,6.911,107.574-20.895c30.312-26.862,61.721-72.25,91.21-92.871
				c16.976-11.871,36.119-18.663,52.99-20.369c29.623-3.074,58.323,37.923,75.623,70.872c17.415,33.169,28.662,53.295,42.574,37.173
				c10.644-12.335,22.081-44.428,35.966-76.073c27.701-63.132,96.037-110.711,110.677-146.187"/>
			<path style="opacity:0.6047;fill:none;stroke:#D6D9D9;stroke-width:0.8488;stroke-miterlimit:10;" d="M-26.573,269.139
				c48.07-21.93,91.084-34.617,116.136-36.045c69.631-4.012,104.996,69.965,125.824,86.404
				c26.192,20.672,34.164-24.007,69.683-40.132c31.509-14.305,75.546,5.127,106.277-22.976c30.169-27.587,60.697-73.361,89.57-93.43
				c16.74-11.635,35.895-18.026,52.941-19.439c29.92-2.56,59.235,37.571,76.562,68.973c17.435,31.598,28.456,49.187,42.138,32.021
				c10.43-13.086,21.625-45.134,35.446-75.924c27.774-61.871,98.844-104.645,113.839-140.22"/>
			<path style="opacity:0.5814;fill:none;stroke:#D6D9D9;stroke-width:0.8547;stroke-miterlimit:10;" d="M-25.566,273.063
				c47.732-21.955,90.34-34.708,115.465-36.395c69.843-4.73,105.103,67.407,125.852,84.551
				c26.138,21.598,33.872-19.077,69.664-35.137c31.59-14.174,74.887,3.333,104.98-25.056c30.02-28.32,59.672-74.471,87.93-93.989
				c16.504-11.4,35.672-17.389,52.893-18.509c30.218-2.046,60.145,37.219,77.5,67.074c17.455,30.026,28.252,45.08,41.702,26.868
				c10.218-13.836,21.17-45.839,34.926-75.775c27.851-60.61,101.65-98.58,117.001-134.254"/>
			<path style="opacity:0.5581;fill:none;stroke:#D6DADA;stroke-width:0.8605;stroke-miterlimit:10;" d="M-24.56,276.987
				c47.394-21.98,89.595-34.8,114.794-36.744c70.055-5.448,105.21,64.849,125.879,82.699c26.083,22.525,33.581-14.148,69.645-30.141
				c31.672-14.045,74.222,1.531,103.683-27.136c29.866-29.061,58.648-75.58,86.289-94.548
				c16.269-11.163,35.448-16.752,52.845-17.579c30.515-1.532,61.054,36.866,78.438,65.175
				c17.473,28.454,28.052,40.974,41.266,21.716c10.008-14.586,20.719-46.544,34.406-75.626
				c27.933-59.349,104.457-92.515,120.164-128.287"/>
			<path style="opacity:0.5349;fill:none;stroke:#D6DADA;stroke-width:0.8663;stroke-miterlimit:10;" d="M-23.554,280.91
				c47.057-22.004,88.851-34.892,114.123-37.094c70.268-6.166,105.316,62.293,125.906,80.847
				c26.026,23.453,33.288-9.221,69.625-25.146c31.753-13.917,73.55-0.278,102.386-29.216c29.704-29.81,57.625-76.689,84.649-95.106
				c16.034-10.927,35.224-16.115,52.797-16.649c30.813-1.018,61.962,36.511,79.376,63.276c17.489,26.88,27.854,36.868,40.83,16.563
				c9.801-15.335,20.27-47.248,33.887-75.478c28.018-58.087,107.264-86.449,123.326-122.321"/>
			<path style="opacity:0.5116;fill:none;stroke:#D6DADA;stroke-width:0.8721;stroke-miterlimit:10;" d="M-22.548,284.834
				c46.719-22.029,88.107-34.983,113.451-37.444c70.48-6.884,105.421,59.736,125.934,78.994
				c25.969,24.381,32.996-4.294,69.606-20.151c31.833-13.789,72.871-2.095,101.089-31.297
				c29.536-30.565,56.602-77.797,83.009-95.665c15.799-10.69,35.001-15.478,52.748-15.72c31.11-0.503,62.868,36.156,80.314,61.377
				c17.504,25.305,27.658,32.762,40.394,11.411c9.595-16.085,19.825-47.952,33.367-75.329
				c28.109-56.825,110.071-80.384,126.488-116.354"/>
			<path style="opacity:0.4884;fill:none;stroke:#D7DADA;stroke-width:0.8779;stroke-miterlimit:10;" d="M-21.541,288.757
				c46.381-22.054,87.363-35.075,112.78-37.793c70.692-7.602,105.525,57.181,125.961,77.142
				c25.911,25.31,32.703,0.633,69.587-15.156c31.914-13.661,72.185-3.919,99.792-33.377c29.36-31.328,55.58-78.905,81.369-96.224
				c15.564-10.453,34.777-14.841,52.7-14.79c31.408,0.011,63.773,35.799,81.253,59.478c17.517,23.729,27.465,28.656,39.958,6.258
				c9.391-16.835,19.382-48.655,32.847-75.18c28.205-55.562,112.877-74.318,129.65-110.388"/>
			<path style="opacity:0.4651;fill:none;stroke:#D7DADA;stroke-width:0.8837;stroke-miterlimit:10;" d="M-20.535,292.681
				c46.044-22.079,86.619-35.167,112.109-38.143c70.905-8.32,105.629,54.625,125.988,75.29c25.852,26.24,32.41,5.558,69.567-10.161
				c31.994-13.535,71.491-5.749,98.495-35.457c29.176-32.098,54.559-80.011,79.729-96.783c15.33-10.215,34.553-14.204,52.652-13.86
				c31.705,0.525,64.674,35.442,82.191,57.579c17.528,22.153,27.274,24.549,39.523,1.106c9.188-17.585,18.942-49.357,32.327-75.031
				C700.353,102.923,787.73,88.968,804.858,52.8"/>
			<path style="opacity:0.4419;fill:none;stroke:#D7DADA;stroke-width:0.8895;stroke-miterlimit:10;" d="M-19.529,296.604
				c45.706-22.104,85.874-35.258,111.438-38.492c71.117-9.038,105.732,52.07,126.015,73.437
				c25.792,27.17,32.116,10.483,69.548-5.166c32.074-13.409,70.79-7.585,97.198-37.537c28.983-32.875,53.538-81.116,78.089-97.342
				c15.096-9.977,34.33-13.567,52.604-12.93c32.003,1.039,65.574,35.083,83.129,55.68c17.536,20.575,27.085,20.442,39.087-4.047
				c8.986-18.336,18.506-50.058,31.807-74.883C697.8,102.293,787.876,93.138,805.36,56.871"/>
			<path style="opacity:0.4186;fill:none;stroke:#D7DBDB;stroke-width:0.8953;stroke-miterlimit:10;" d="M-18.523,300.528
				c45.368-22.129,85.13-35.35,110.767-38.842c71.329-9.756,105.834,49.516,126.043,71.585c25.731,28.1,31.822,15.407,69.529-0.171
				c32.153-13.283,70.082-9.425,95.901-39.617c28.782-33.658,52.519-82.221,76.449-97.9c14.863-9.738,34.106-12.93,52.555-12
				c32.3,1.554,66.47,34.724,84.067,53.781c17.541,18.997,26.897,16.334,38.651-9.199c8.786-19.087,18.074-50.758,31.287-74.734
				c28.529-51.766,121.298-56.122,139.136-92.488"/>
			<path style="opacity:0.3953;fill:none;stroke:#D7DBDB;stroke-width:0.9012;stroke-miterlimit:10;" d="M-17.517,304.451
				c45.03-22.154,84.386-35.442,110.095-39.191c71.542-10.474,105.936,46.961,126.07,69.733c25.669,29.031,31.528,20.33,69.51,4.825
				c32.233-13.159,69.367-11.271,94.603-41.698c28.571-34.447,51.5-83.324,74.809-98.459c14.63-9.499,33.882-12.293,52.507-11.07
				c32.598,2.068,67.362,34.364,85.006,51.883c17.542,17.419,26.711,12.226,38.215-14.352c8.587-19.839,17.645-51.456,30.768-74.585
				c28.65-50.496,124.104-50.057,142.299-86.521"/>
			<path style="opacity:0.3721;fill:none;stroke:#D8DBDB;stroke-width:0.907;stroke-miterlimit:10;" d="M-16.51,308.375
				c44.693-22.179,83.642-35.533,109.424-39.541c71.754-11.192,106.037,44.407,126.097,67.88
				c25.606,29.962,31.234,25.252,69.49,9.82c32.312-13.035,68.644-13.12,93.306-43.778c28.351-35.242,50.481-84.427,73.168-99.018
				c14.397-9.26,33.659-11.657,52.459-10.141c32.895,2.582,68.251,34.004,85.944,49.984c17.539,15.841,26.526,8.117,37.779-19.504
				c8.389-20.591,17.22-52.153,30.248-74.437c28.779-49.224,126.911-43.991,145.461-80.555"/>
			<path style="opacity:0.3488;fill:none;stroke:#D8DBDB;stroke-width:0.9128;stroke-miterlimit:10;" d="M-15.504,312.298
				c44.355-22.203,82.898-35.625,108.753-39.89c71.966-11.91,106.137,41.853,126.124,66.028
				c25.542,30.893,30.939,30.174,69.471,14.815c32.391-12.911,67.913-14.973,92.009-45.858
				c28.12-36.043,49.464-85.528,71.528-99.577c14.165-9.019,33.435-11.02,52.411-9.211c33.193,3.096,69.134,33.645,86.882,48.085
				c17.531,14.263,26.343,4.007,37.343-24.656c8.191-21.344,16.799-52.848,29.728-74.288
				c28.916-47.948,129.718-37.926,148.623-74.588"/>
			<path style="opacity:0.3256;fill:none;stroke:#D8DBDB;stroke-width:0.9186;stroke-miterlimit:10;" d="M-14.498,316.222
				c44.017-22.228,82.154-35.717,108.082-40.24c72.179-12.628,106.236,39.299,126.152,64.175
				c25.478,31.824,30.645,35.095,69.452,19.81c32.47-12.788,67.175-16.83,90.712-47.938c27.88-36.849,48.447-86.628,69.888-100.136
				c13.933-8.778,33.211-10.383,52.362-8.281c33.49,3.61,70.013,33.288,87.82,46.186c17.518,12.688,26.16-0.103,36.907-29.809
				c7.995-22.097,16.382-53.542,29.208-74.139c29.061-46.669,132.524-31.861,151.785-68.622"/>
			<path style="opacity:0.3023;fill:none;stroke:#D8DCDC;stroke-width:0.9244;stroke-miterlimit:10;" d="M-13.492,320.146
				c43.68-22.253,81.409-35.808,107.411-40.589c72.391-13.346,106.335,36.745,126.179,62.323
				c25.413,32.756,30.349,40.014,69.432,24.805c32.548-12.666,66.43-18.688,89.415-50.019
				c27.628-37.659,47.431-87.726,68.248-100.695c13.702-8.536,32.988-9.746,52.314-7.351c33.788,4.125,70.886,32.934,88.758,44.287
				c17.5,11.116,25.978-4.215,36.471-34.961c7.799-22.851,15.969-54.232,28.688-73.99C682.641,98.571,788.757,118.16,808.373,81.3"
				/>
			<path style="opacity:0.2791;fill:none;stroke:#D8DCDC;stroke-width:0.9302;stroke-miterlimit:10;" d="M-12.486,324.069
				c43.342-22.278,80.665-35.9,106.74-40.939c72.603-14.064,106.434,34.191,126.206,60.471c25.346,33.688,30.054,44.934,69.413,29.8
				c32.627-12.545,65.678-20.549,88.118-52.099c27.366-38.475,46.417-88.823,66.608-101.253c13.472-8.293,32.764-9.109,52.266-6.421
				c34.085,4.639,71.754,32.585,89.697,42.388c17.477,9.549,25.797-8.326,36.035-40.114c7.603-23.606,15.561-54.921,28.168-73.841
				c29.38-44.094,138.138-19.73,158.109-56.688"/>
			<path style="opacity:0.2558;fill:none;stroke:#D9DCDC;stroke-width:0.936;stroke-miterlimit:10;" d="M-11.479,327.993
				c43.004-22.303,79.921-35.992,106.068-41.288c72.816-14.782,106.532,31.638,126.233,58.618
				c25.28,34.619,29.758,49.852,69.394,34.796c32.705-12.424,64.918-22.412,86.821-54.179
				c27.093-39.295,45.403-89.919,64.968-101.812c13.242-8.05,32.54-8.472,52.218-5.491c34.383,5.153,72.617,32.241,90.635,40.489
				c17.448,7.987,25.616-12.439,35.599-45.266c7.408-24.361,15.158-55.606,27.648-73.693
				c29.555-42.796,140.945-13.665,161.272-50.722"/>
			<path style="opacity:0.2326;fill:none;stroke:#D9DCDC;stroke-width:0.9419;stroke-miterlimit:10;" d="M-10.473,331.916
				c42.666-22.328,79.177-36.083,105.397-41.638c73.028-15.5,106.629,29.084,126.261,56.766
				c25.212,35.551,29.463,54.77,69.374,39.791c32.783-12.303,64.151-24.276,85.524-56.26c26.808-40.118,44.39-91.013,63.327-102.371
				c13.013-7.805,32.317-7.835,52.17-4.562c34.68,5.667,73.476,31.905,91.573,38.59c17.416,6.434,25.437-16.552,35.164-50.419
				c7.214-25.117,14.759-56.288,27.129-73.544c29.741-41.49,143.752-7.599,164.434-44.755"/>
			<path style="opacity:0.2093;fill:none;stroke:#D9DCDC;stroke-width:0.9477;stroke-miterlimit:10;" d="M-9.467,335.84
				c42.329-22.353,78.432-36.175,104.726-41.988c73.24-16.218,106.726,26.53,126.288,54.914
				c25.144,36.483,29.167,59.686,69.355,44.786c32.861-12.184,63.377-26.14,84.227-58.34c26.512-40.945,43.378-92.105,61.687-102.93
				c12.784-7.558,32.093-7.198,52.121-3.632c34.977,6.181,74.333,31.579,92.511,36.691c17.382,4.888,25.258-20.666,34.727-55.571
				c7.019-25.873,14.365-56.965,26.609-73.395c29.939-40.175,146.558-1.534,167.596-38.789"/>
			<path style="opacity:0.186;fill:none;stroke:#D9DDDD;stroke-width:0.9535;stroke-miterlimit:10;" d="M-8.461,339.763
				c41.991-22.378,77.688-36.267,104.055-42.337c73.453-16.936,106.822,23.976,126.315,53.061
				c25.076,37.414,28.87,64.602,69.336,49.781c32.939-12.064,62.596-28.005,82.93-60.42c26.205-41.775,42.367-93.195,60.047-103.489
				c12.557-7.311,31.87-6.561,52.073-2.702c35.275,6.696,75.19,31.263,93.45,34.792c17.348,3.353,25.079-24.78,34.292-60.724
				c6.826-26.629,13.975-57.639,26.089-73.247c30.151-38.847,149.365,4.532,170.758-32.822"/>
			<path style="opacity:0.1628;fill:none;stroke:#DADDDD;stroke-width:0.9593;stroke-miterlimit:10;" d="M-7.454,343.687
				C34.199,321.284,69.49,307.329,95.929,301c73.665-17.654,106.918,21.422,126.342,51.209
				c25.006,38.346,28.574,69.517,69.316,54.776c33.016-11.946,61.809-29.87,81.633-62.5c25.886-42.608,41.358-94.283,58.407-104.047
				c12.33-7.061,31.646-5.924,52.025-1.772c35.572,7.21,76.049,30.958,94.388,32.894c17.316,1.828,24.9-28.895,33.856-65.876
				c6.632-27.386,13.591-58.307,25.569-73.098c30.375-37.506,152.172,10.597,173.92-26.856"/>
			<path style="opacity:0.1395;fill:none;stroke:#DADDDD;stroke-width:0.9651;stroke-miterlimit:10;" d="M-6.448,347.61
				c41.316-22.427,76.2-36.45,102.712-43.036c73.877-18.372,106.955,18.905,126.37,49.357
				c24.861,39.325,28.277,74.432,69.297,59.771c33.094-11.828,61.014-31.734,80.335-64.58
				c25.555-43.444,40.349-95.369,56.767-104.606c12.104-6.81,31.422-5.287,51.977-0.842c35.87,7.724,76.938,29.988,95.326,30.995
				c17.267,0.946,24.722-33.01,33.42-71.028c6.438-28.143,13.211-58.97,25.049-72.949c30.615-36.149,154.978,16.662,177.082-20.889"
				/>
			<path style="opacity:0.1163;fill:none;stroke:#DADDDD;stroke-width:0.9709;stroke-miterlimit:10;" d="M-5.442,351.534
				c40.978-22.452,75.456-36.541,102.041-43.386c74.09-19.09,107.059,16.345,126.397,47.504
				c24.802,40.248,27.954,79.271,69.278,64.767c33.15-11.77,60.214-33.598,79.038-66.661
				c25.212-44.281,39.342-96.453,55.127-105.165c11.879-6.557,31.199-4.65,51.928,0.088c36.167,8.238,77.786,30.376,96.264,29.096
				c17.271-1.197,24.544-37.126,32.984-76.181c6.245-28.901,12.835-59.626,24.529-72.8c30.869-34.773,157.785,22.728,180.245-14.923
				"/>
			<path style="opacity:0.093;fill:none;stroke:#DADDDD;stroke-width:0.9767;stroke-miterlimit:10;" d="M-4.436,355.457
				c40.64-22.477,74.712-36.633,101.37-43.735c74.302-19.808,107.163,13.784,126.424,45.652
				c24.743,41.172,27.662,84.197,69.259,69.762c33.232-11.642,59.406-35.46,77.741-68.741
				c24.858-45.121,38.335-97.533,53.487-105.724c11.656-6.301,30.975-4.013,51.88,1.018c36.465,8.752,78.669,30.096,97.203,27.197
				c17.262-2.7,24.367-41.243,32.548-81.333c6.052-29.66,12.463-60.276,24.01-72.652c31.139-33.375,160.592,28.793,183.407-8.956"/>
			<path style="opacity:0.0698;fill:none;stroke:#DADDDD;stroke-width:0.9826;stroke-miterlimit:10;" d="M-3.43,359.381
				c40.302-22.502,73.967-36.725,100.699-44.085c74.514-20.526,107.267,11.223,126.451,43.799
				c24.684,42.095,27.37,89.123,69.239,74.757c33.313-11.514,58.593-37.321,76.444-70.821
				c24.492-45.961,37.33-98.611,51.847-106.283c11.433-6.042,30.751-3.376,51.832,1.947c36.762,9.267,79.562,29.819,98.141,25.298
				c17.263-4.2,24.251-45.348,32.112-86.486c5.905-30.409,12.095-60.917,23.49-72.503c31.424-31.951,163.399,34.858,186.569-2.99"/>
			<path style="opacity:0.0465;fill:none;stroke:#DBDEDE;stroke-width:0.9884;stroke-miterlimit:10;" d="M-2.423,363.304
				C37.541,340.777,70.8,326.488,97.604,318.87c74.727-21.244,107.371,8.663,126.479,41.947
				c24.625,43.018,27.078,94.049,69.22,79.752c33.395-11.386,57.773-39.18,75.147-72.901
				c24.114-46.802,36.326-99.686,50.206-106.841c11.212-5.78,30.528-2.739,51.784,2.877c37.06,9.781,80.465,29.542,99.079,23.399
				c17.273-5.701,24.054-49.469,31.676-91.638c5.697-31.171,11.73-61.549,22.97-72.354c31.726-30.497,166.205,40.924,189.731,2.977"
				/>
			<path style="opacity:0.0233;fill:none;stroke:#DBDEDE;stroke-width:0.9942;stroke-miterlimit:10;" d="M-1.417,367.228
				c39.627-22.552,72.479-36.908,99.357-44.784c74.939-21.962,107.474,6.102,126.506,40.095
				c24.566,43.941,26.786,98.975,69.201,84.747c33.476-11.258,56.947-41.037,73.85-74.982
				c23.724-47.644,35.323-100.757,48.566-107.4c10.993-5.514,30.304-2.102,51.735,3.807c37.357,10.295,81.377,29.264,100.017,21.5
				c17.293-7.203,23.856-53.591,31.24-96.791c5.49-31.934,11.367-62.172,22.45-72.205c32.044-29.009,169.012,46.989,192.893,8.944"
				/>
			<path style="opacity:0;fill:none;stroke:#DBDEDE;stroke-miterlimit:10;" d="M-0.411,371.151
				c290.493-166.926,206.856,111.888,294.4,82.851c81.174-26.924,97.99-174.563,119.479-185.021
				c29.552-14.381,123.279,39.102,152.643,24.338c30.124-15.146,27.029-152.181,52.734-174
				c32.376-27.481,171.819,53.055,196.055,14.91"/>
		</g>
		<path style="clip-path:url(#SVGID_00000005248711146811728410000016307426665535506080_);fill:#F8F9F9;" d="M150.814,521.102
			c14.998-29.053,46.762-48.653,79.455-49.029c16.118-0.186,32.298,3.921,48.235,1.503c29.374-4.457,50.738-29.464,68.382-53.366
			c17.645-23.902,36.512-50,64.939-58.635c38.036-11.554,77.437,12.402,117.159,13.973c32.939,1.302,64.449-12.908,93.131-29.155
			c28.683-16.246,56.468-35.043,88.068-44.429c31.6-9.386,68.873-7.654,93.669,14.067v205.771L150.814,521.102z"/>
		<path style="clip-path:url(#SVGID_00000005248711146811728410000016307426665535506080_);fill:#F8F9F9;" d="M-70.369,179.394
			c14.179,16.634,40.136,18.585,60.521,10.699c20.385-7.886,36.611-23.527,52.593-38.436c15.983-14.909,33.075-29.903,54.083-35.937
			c31.835-9.144,66.936,3.902,98.698-5.491c41.16-12.172,64.364-57.808,104.163-73.88c19.961-8.061,42.178-7.86,63.691-7.072
			c21.513,0.788,43.527,1.983,64.113-4.313c20.586-6.296,39.828-21.885,43.825-43.038H-80.255L-70.369,179.394z"/>
		<path style="clip-path:url(#SVGID_00000005248711146811728410000016307426665535506080_);fill:#FFFFFF;" d="M312.975-16.965
			c-7.451,23.283-30.357,40.739-54.783,41.748c-10.826,0.447-21.533-2.028-32.309-3.17c-10.775-1.142-22.267-0.795-31.588,4.73
			c-14.562,8.632-20.16,27.49-33.962,37.29c-11.148,7.915-25.823,8.637-39.45,7.531c-13.627-1.106-27.379-3.738-40.859-1.45
			C66.906,71.94,55.05,78.663,43.482,85.238c-11.568,6.575-23.478,13.23-36.622,15.297c-13.145,2.067-27.99-1.382-36.11-11.923
			V-14.773L312.975-16.965z"/>
		<path style="clip-path:url(#SVGID_00000005248711146811728410000016307426665535506080_);fill:#FFFFFF;" d="M765.123,336.817
			c-17.857-7.291-38.772-1.914-55,8.511c-16.228,10.425-28.939,25.349-42.393,39.171c-13.454,13.822-28.51,27.097-46.959,32.724
			c-35.987,10.975-75.908-9.469-111.975,1.24c-26.221,7.786-46.028,30.921-72.587,37.461c-15.774,3.885-32.709,1.543-48.208,6.413
			c-22.73,7.142-37.865,28.054-51.344,47.701h424.823L765.123,336.817z"/>
		<g style="clip-path:url(#SVGID_00000005248711146811728410000016307426665535506080_);">
			<g>
				
					<rect x="709.68" y="24.367" transform="matrix(0.7071 -0.7071 0.7071 0.7071 188.4571 514.2043)" style="fill:#FFFFFF;" width="10.495" height="10.495"/>
				
					<rect x="683.908" y="24.367" transform="matrix(0.7071 -0.7071 0.7071 0.7071 180.9086 495.9806)" style="fill:#FFFFFF;" width="10.495" height="10.495"/>
				
					<rect x="658.136" y="24.367" transform="matrix(0.7071 -0.7071 0.7071 0.7071 173.3607 477.7576)" style="fill:#FFFFFF;" width="10.495" height="10.495"/>
				
					<rect x="632.364" y="24.367" transform="matrix(0.7071 -0.7071 0.7071 0.7071 165.8116 459.5332)" style="fill:#FFFFFF;" width="10.495" height="10.495"/>
				
					<rect x="606.592" y="24.367" transform="matrix(0.7071 -0.7071 0.7071 0.7071 158.2631 441.3096)" style="fill:#FFFFFF;" width="10.495" height="10.495"/>
				
					<rect x="580.82" y="24.367" transform="matrix(0.7071 -0.7071 0.7071 0.7071 150.7146 423.0859)" style="fill:#FFFFFF;" width="10.495" height="10.495"/>
			</g>
			<g>
				
					<rect x="158.685" y="465.138" transform="matrix(0.7071 -0.7071 0.7071 0.7071 -284.5982 253.6909)" style="fill:#FFFFFF;" width="10.495" height="10.495"/>
				
					<rect x="132.913" y="465.138" transform="matrix(0.7071 -0.7071 0.7071 0.7071 -292.1466 235.4671)" style="fill:#FFFFFF;" width="10.495" height="10.495"/>
				
					<rect x="107.141" y="465.138" transform="matrix(0.7071 -0.7071 0.7071 0.7071 -299.6951 217.2434)" style="fill:#FFFFFF;" width="10.495" height="10.495"/>
				
					<rect x="81.369" y="465.138" transform="matrix(0.7071 -0.7071 0.7071 0.7071 -307.2436 199.0197)" style="fill:#FFFFFF;" width="10.495" height="10.495"/>
				
					<rect x="55.597" y="465.138" transform="matrix(0.7071 -0.7071 0.7071 0.7071 -314.7921 180.7961)" style="fill:#FFFFFF;" width="10.495" height="10.495"/>
				
					<rect x="29.824" y="465.138" transform="matrix(0.7071 -0.7071 0.7071 0.7071 -322.3406 162.5724)" style="fill:#FFFFFF;" width="10.495" height="10.495"/>
			</g>
		</g>
		<g style="clip-path:url(#SVGID_00000005248711146811728410000016307426665535506080_);">
			<g>
				<g>
					<path style="fill:#FED49C;" d="M19.693,135.478c-0.244,0-0.488-0.093-0.674-0.279c-0.372-0.372-0.372-0.975,0-1.348
						L313.16-160.29c0.372-0.372,0.975-0.372,1.348,0c0.372,0.372,0.372,0.975,0,1.348L20.367,135.199
						C20.181,135.385,19.937,135.478,19.693,135.478z"/>
				</g>
				<g>
					<path style="fill:#FED49C;" d="M33.107,79.749c-0.244,0-0.488-0.093-0.674-0.279c-0.372-0.372-0.372-0.975,0-1.348
						L417.29-306.735c0.372-0.372,0.975-0.372,1.348,0c0.372,0.372,0.372,0.975,0,1.348L33.781,79.47
						C33.595,79.656,33.351,79.749,33.107,79.749z"/>
				</g>
			</g>
			<g>
				<g>
					<path style="fill:#FED49C;" d="M-77.047,515.667c-0.244,0-0.488-0.093-0.674-0.279c-0.372-0.372-0.372-0.975,0-1.348
						L50.268,386.052c0.372-0.372,0.975-0.372,1.348,0c0.372,0.372,0.372,0.975,0,1.348L-76.373,515.388
						C-76.56,515.574-76.803,515.667-77.047,515.667z"/>
				</g>
				<g>
					<path style="fill:#FED49C;" d="M-63.633,459.939c-0.244,0-0.488-0.093-0.674-0.279c-0.372-0.372-0.372-0.975,0-1.348
						L63.682,330.323c0.372-0.372,0.975-0.372,1.348,0c0.372,0.372,0.372,0.975,0,1.348L-62.959,459.66
						C-63.145,459.846-63.389,459.939-63.633,459.939z"/>
				</g>
			</g>
			<g>
				<g>
					<path style="fill:#FED49C;" d="M488.544,72.632c-0.244,0-0.488-0.093-0.674-0.279c-0.372-0.372-0.372-0.975,0-1.348
						L615.859-56.983c0.372-0.372,0.975-0.372,1.348,0c0.372,0.372,0.372,0.975,0,1.348L489.218,72.353
						C489.032,72.539,488.788,72.632,488.544,72.632z"/>
				</g>
			</g>
			<g>
				<g>
					<path style="fill:#FED49C;" d="M500.982,17.958c-0.244,0-0.488-0.093-0.674-0.279c-0.372-0.372-0.372-0.975,0-1.348
						l84.214-84.214c0.372-0.372,0.975-0.372,1.348,0c0.372,0.372,0.372,0.975,0,1.348l-84.214,84.214
						C501.469,17.865,501.226,17.958,500.982,17.958z"/>
				</g>
			</g>
			<g>
				<g>
					<path style="fill:#FED49C;" d="M600.174,569.35c-0.244,0-0.488-0.093-0.674-0.279c-0.372-0.372-0.372-0.975,0-1.348
						l127.989-127.989c0.372-0.372,0.975-0.372,1.348,0c0.372,0.372,0.372,0.975,0,1.348L600.848,569.071
						C600.662,569.257,600.418,569.35,600.174,569.35z"/>
				</g>
			</g>
			<g>
				<g>
					<path style="fill:#FED49C;" d="M612.612,514.676c-0.244,0-0.488-0.093-0.674-0.279c-0.372-0.372-0.372-0.975,0-1.348
						l84.214-84.214c0.372-0.372,0.975-0.372,1.348,0c0.372,0.372,0.372,0.975,0,1.348l-84.214,84.214
						C613.1,514.583,612.856,514.676,612.612,514.676z"/>
				</g>
			</g>
		</g>
		<g style="clip-path:url(#SVGID_00000005248711146811728410000016307426665535506080_);">
			<path style="fill:#F8F9F9;" d="M-25.199,198.064c-0.15,0-0.3-0.001-0.451-0.002l0.029-3c0.139,0.001,0.281,0.002,0.42,0.002
				c15.393,0,31.347-8.183,48.76-25.007c3.203-3.095,6.397-6.358,9.487-9.515c10.331-10.557,21.015-21.472,34.304-28.484
				c23.145-12.212,50.295-10.858,76.551-9.552c26.265,1.31,53.423,2.661,75.965-9.841c7.854-4.355,14.999-10.368,21.91-16.182
				c10.088-8.488,20.52-17.264,33.399-21.119c7.634-2.285,15.806-2.725,23.708-3.151c11.439-0.617,22.243-1.199,31.395-6.917
				c5.663-3.538,10.17-8.876,14.529-14.039c4.72-5.591,9.602-11.373,16.082-15.145c9.425-5.486,20.536-5.858,31.281-6.217
				c2.62-0.087,5.329-0.178,7.942-0.344c39.275-2.488,77.324-26.142,96.934-60.262l2.602,1.495
				c-9.934,17.283-24.477,32.196-42.059,43.126c-17.582,10.93-37.392,17.374-57.286,18.634c-2.658,0.169-5.39,0.26-8.031,0.348
				c-10.374,0.347-21.101,0.705-29.873,5.812c-6.032,3.511-10.533,8.843-15.299,14.487c-4.508,5.339-9.169,10.86-15.231,14.647
				c-9.808,6.129-21.508,6.759-32.823,7.369c-7.727,0.416-15.718,0.847-23.01,3.029c-12.284,3.677-22.02,11.868-32.328,20.54
				c-7.02,5.906-14.279,12.014-22.387,16.51c-23.291,12.918-50.885,11.543-77.569,10.214c-25.851-1.288-52.584-2.62-75.001,9.209
				c-12.874,6.793-23.39,17.538-33.561,27.929c-3.103,3.171-6.313,6.45-9.545,9.574C7.646,189.604-8.992,198.064-25.199,198.064z"/>
		</g>
		<g style="clip-path:url(#SVGID_00000005248711146811728410000016307426665535506080_);">
			<path style="fill:#FFFFFF;" d="M267.657,516.367c-6.376,0-11.698-1.16-15.982-2.732l1.034-2.816
				c21.381,7.848,45.201-3.725,61.418-14.816c4.194-2.868,8.41-5.959,12.486-8.947c13.974-10.245,28.423-20.839,45.446-25.152
				c10.61-2.688,21.707-2.771,32.437-2.851c10.424-0.078,21.203-0.158,31.352-2.664c17.39-4.294,32.384-15.484,46.883-26.307
				c15.424-11.513,31.373-23.417,50.408-27.282c12.584-2.556,25.566-1.354,38.12-0.193c11.753,1.087,23.908,2.211,35.542,0.191
				c22.402-3.89,41.377-19.214,55.405-32.129c3.526-3.247,7.067-6.632,10.491-9.905c12.298-11.758,25.015-23.915,40.025-32.54
				c10.166-5.842,21.188-9.551,31.871-10.728c11.911-1.309,23.104,0.647,32.372,5.659l-1.428,2.639
				c-13.088-7.08-36.072-9.478-61.321,5.031c-14.694,8.443-27.277,20.473-39.446,32.107c-3.434,3.283-6.985,6.679-10.533,9.944
				c-14.33,13.193-33.751,28.853-56.923,32.877c-12.027,2.088-24.382,0.945-36.332-0.159c-12.339-1.143-25.098-2.323-37.246,0.146
				c-18.377,3.732-34.052,15.432-49.211,26.747c-14.739,11-29.979,22.376-47.959,26.814c-10.491,2.591-21.45,2.673-32.048,2.752
				c-10.553,0.078-21.465,0.159-31.722,2.759c-16.457,4.17-30.667,14.588-44.409,24.663c-4.096,3.003-8.332,6.108-12.566,9.005
				C295.846,512.139,279.83,516.367,267.657,516.367z"/>
		</g>
	</g>
</g>
</svg>
